<svg width="23" height="23" fill="none" xmlns="http://www.w3.org/2000/svg"><g clip-path="url('#clip0_1_8')"><path d="M0 9.628A9.628 9.628 0 0 1 9.628 0h11.647C22.228 0 23 .772 23 1.725v11.647A9.628 9.628 0 0 1 13.372 23H1.725A1.725 1.725 0 0 1 0 21.275V9.628Z" fill="#1E1E1E"/><g filter="url('#filter0_f_1_8')"><rect x="3.878" y="3.878" width="15.244" height="15.244" rx="7.622" fill="url('#paint0_linear_1_8')"/></g><rect x="3.878" y="3.878" width="15.244" height="15.244" rx="7.622" fill="url('#paint1_linear_1_8')"/></g><path d="M9.628.23h11.647c.826 0 1.495.67 1.495 1.495v11.647a9.398 9.398 0 0 1-9.398 9.398H1.725C.899 22.77.23 22.1.23 21.275V9.628A9.398 9.398 0 0 1 9.628.23Z" stroke="url('#paint2_linear_1_8')" stroke-width=".46"/><defs><linearGradient id="paint0_linear_1_8" x1="11.5" y1="3.878" x2="11.5" y2="19.122" gradientUnits="userSpaceOnUse"><stop stop-color="#3AEEE3"/><stop offset="1" stop-color="#D9D9D9"/></linearGradient><linearGradient id="paint1_linear_1_8" x1="11.5" y1="3.878" x2="11.5" y2="19.122" gradientUnits="userSpaceOnUse"><stop stop-color="#3AEEE3"/><stop offset="1" stop-color="#D9D9D9"/></linearGradient><linearGradient id="paint2_linear_1_8" x1="11.5" y1="0" x2="11.5" y2="23" gradientUnits="userSpaceOnUse"><stop stop-color="#BCBCBC"/><stop offset="1" stop-color="#BCBCBC" stop-opacity=".17"/></linearGradient><clipPath id="clip0_1_8"><path d="M0 9.628A9.628 9.628 0 0 1 9.628 0h11.647C22.228 0 23 .772 23 1.725v11.647A9.628 9.628 0 0 1 13.372 23H1.725A1.725 1.725 0 0 1 0 21.275V9.628Z" fill="#fff"/></clipPath><filter id="filter0_f_1_8" x="-1.25" y="-1.25" width="25.499" height="25.499" filterUnits="userSpaceOnUse" color-interpolation-filters="sRGB"><feFlood flood-opacity="0" result="BackgroundImageFix"/><feBlend in="SourceGraphic" in2="BackgroundImageFix" result="shape"/><feGaussianBlur stdDeviation="2.564" result="effect1_foregroundBlur_1_8"/></filter></defs></svg>