<svg width="225" height="225" fill="none" xmlns="http://www.w3.org/2000/svg"><g clip-path="url('#clip0_1_101')"><path d="M0 94.186C0 42.168 42.169 0 94.186 0h113.939C217.445 0 225 7.555 225 16.875v113.939C225 182.831 182.831 225 130.814 225H16.875C7.555 225 0 217.445 0 208.125V94.186Z" fill="#1E1E1E"/><g filter="url('#filter0_f_1_101')"><rect x="37.936" y="37.936" width="149.128" height="149.128" rx="74.564" fill="url('#paint0_linear_1_101')"/></g><rect x="37.936" y="37.936" width="149.128" height="149.128" rx="74.564" fill="url('#paint1_linear_1_101')"/></g><path d="M94.186 2.25h113.939c8.077 0 14.625 6.548 14.625 14.625v113.939c0 50.775-41.161 91.936-91.936 91.936H16.875c-8.077 0-14.625-6.548-14.625-14.625V94.186C2.25 43.411 43.411 2.25 94.186 2.25Z" stroke="url('#paint2_linear_1_101')" stroke-width="4.5"/><defs><linearGradient id="paint0_linear_1_101" x1="112.5" y1="37.936" x2="112.5" y2="187.064" gradientUnits="userSpaceOnUse"><stop stop-color="#3AEEE3"/><stop offset="1" stop-color="#D9D9D9"/></linearGradient><linearGradient id="paint1_linear_1_101" x1="112.5" y1="37.936" x2="112.5" y2="187.064" gradientUnits="userSpaceOnUse"><stop stop-color="#3AEEE3"/><stop offset="1" stop-color="#D9D9D9"/></linearGradient><linearGradient id="paint2_linear_1_101" x1="112.5" y1="0" x2="112.5" y2="225" gradientUnits="userSpaceOnUse"><stop stop-color="#BCBCBC"/><stop offset="1" stop-color="#BCBCBC" stop-opacity=".17"/></linearGradient><clipPath id="clip0_1_101"><path d="M0 94.186C0 42.168 42.169 0 94.186 0h113.939C217.445 0 225 7.555 225 16.875v113.939C225 182.831 182.831 225 130.814 225H16.875C7.555 225 0 217.445 0 208.125V94.186Z" fill="#fff"/></clipPath><filter id="filter0_f_1_101" x="-12.225" y="-12.225" width="249.45" height="249.45" filterUnits="userSpaceOnUse" color-interpolation-filters="sRGB"><feFlood flood-opacity="0" result="BackgroundImageFix"/><feBlend in="SourceGraphic" in2="BackgroundImageFix" result="shape"/><feGaussianBlur stdDeviation="25.081" result="effect1_foregroundBlur_1_101"/></filter></defs></svg>