<svg width="16" height="16" fill="none" xmlns="http://www.w3.org/2000/svg"><g clip-path="url('#clip0_34_342')"><g clip-path="url('#clip1_34_342')"><path d="M6.705.318c-.817.139-1.462.36-2.265.77C1.696 2.486.068 5.285.24 8.32c.09 1.587.457 2.584 1.268 3.388.838.845 1.6 1.115 3.09 1.115 2.605 0 5.349-1.15 7.26-3.048 1.165-1.15 1.837-2.376 2.065-3.776l.118-.693.333.45c.505.673.914 1.58 1.101 2.419.153.679.166.706.208.45.173-1.053-.138-2.813-.713-4.011a7.588 7.588 0 0 0-1.4-2.017c-.908-.956-1.704-1.26-3.104-1.184-1.635.09-3.097.686-5.078 2.064-.035.028.242.416.623.866.374.458.776.943.88 1.081.111.146.215.263.243.263.02 0 .526-.318 1.115-.713a25.943 25.943 0 0 1 1.933-1.15c.956-.492 1.012-.485.942.062-.076.644-.852 1.6-2.071 2.557-1.254.983-2.349 1.572-3.443 1.85-.645.166-1.65.11-2.107-.111-.464-.222-.935-.707-1.184-1.213-.18-.367-.201-.492-.201-1.04 0-.803.187-1.364.727-2.175.86-1.274 1.995-2.133 3.54-2.66 1.296-.45 3.097-.513 4.455-.16.381.098.7.167.714.153.041-.035-.908-.423-1.365-.554C9.158.228 7.765.138 6.705.318Z" fill="url('#paint0_radial_34_342')"/><path d="M15.255 10.24c-.243.484-.943 1.357-1.546 1.932a9.115 9.115 0 0 1-4.94 2.425c-.941.146-2.403.104-3.325-.097-.838-.18-2.037-.637-2.66-1.018-.284-.174-.527-.305-.54-.284-.056.055.942.914 1.475 1.26 4.199 2.758 9.845.846 11.556-3.914.201-.568.194-.72-.02-.305Z" fill="url('#paint1_radial_34_342')"/></g></g><defs><radialGradient id="paint0_radial_34_342" cx="0" cy="0" r="1" gradientUnits="userSpaceOnUse" gradientTransform="matrix(17.9837 0 0 14.6131 .229 10.808)"><stop stop-color="#BFFF00"/><stop offset="1" stop-color="#0FF"/></radialGradient><radialGradient id="paint1_radial_34_342" cx="0" cy="0" r="1" gradientUnits="userSpaceOnUse" gradientTransform="matrix(15.2885 0 0 6.64463 2.241 14.815)"><stop stop-color="#BFFF00"/><stop offset="1" stop-color="#0FF"/></radialGradient><clipPath id="clip0_34_342"><path fill="#fff" d="M0 0h16v16H0z"/></clipPath><clipPath id="clip1_34_342"><path fill="#fff" d="M0 0h16v16H0z"/></clipPath></defs></svg>