<svg width="16" height="16" viewBox="0 0 16 16" fill="none" xmlns="http://www.w3.org/2000/svg">
    <mask id="mask0_1_484" style="mask-type:alpha" maskUnits="userSpaceOnUse" x="0" y="0" width="16" height="16">
        <rect width="16" height="16" fill="#D9D9D9"/>
    </mask>
    <g mask="url(#mask0_1_484)">
        <path d="M7.99977 12.5C7.85803 12.5 7.73375 12.4465 7.62692 12.3396C7.52008 12.2326 7.46667 12.1101 7.46667 11.9719V8.53333H4.0281C3.88991 8.53333 3.76735 8.47984 3.66042 8.37286C3.55347 8.26588 3.5 8.14152 3.5 7.9998C3.5 7.85806 3.55347 7.73378 3.66042 7.62695C3.76735 7.52011 3.88991 7.4667 4.0281 7.4667H7.46667V4.02813C7.46667 3.88994 7.52016 3.76738 7.62713 3.66043C7.73412 3.5535 7.85848 3.50003 8.0002 3.50003C8.14193 3.50003 8.26622 3.5535 8.37305 3.66043C8.47988 3.76738 8.5333 3.88994 8.5333 4.02813V7.4667H11.9719C12.1101 7.4667 12.2326 7.52019 12.3396 7.62716C12.4465 7.73415 12.5 7.85851 12.5 8.00023C12.5 8.14196 12.4465 8.26625 12.3396 8.37308C12.2326 8.47991 12.1101 8.53333 11.9719 8.53333H8.5333V11.9719C8.5333 12.1101 8.47981 12.2326 8.37283 12.3396C8.26584 12.4465 8.14149 12.5 7.99977 12.5Z" fill="currentColor"/>
    </g>
</svg>
