<svg width="16" height="16" viewBox="0 0 16 16" fill="none" xmlns="http://www.w3.org/2000/svg">
    <mask id="mask0_1_464" style="mask-type:alpha" maskUnits="userSpaceOnUse" x="0" y="0" width="16" height="16">
        <rect width="16" height="16" fill="#D9D9D9"/>
    </mask>
    <g mask="url(#mask0_1_464)">
        <path d="M8.00112 14.0667C7.16961 14.0667 6.38514 13.9088 5.64772 13.593C4.91028 13.2772 4.26483 12.8427 3.71135 12.2895C3.15786 11.7363 2.72316 11.0911 2.40723 10.354C2.09131 9.61692 1.93335 8.83263 1.93335 8.00112C1.93335 7.15849 2.09124 6.37125 2.40702 5.63938C2.72279 4.90751 3.15729 4.26483 3.71052 3.71135C4.26375 3.15786 4.90891 2.72316 5.646 2.40723C6.38308 2.09131 7.16737 1.93335 7.99888 1.93335C8.84151 1.93335 9.62875 2.09124 10.3606 2.40702C11.0925 2.72279 11.7352 3.15729 12.2886 3.71052C12.8421 4.26375 13.2768 4.90613 13.5928 5.63767C13.9087 6.36919 14.0667 7.15626 14.0667 7.99888C14.0667 8.8304 13.9088 9.61486 13.593 10.3523C13.2772 11.0897 12.8427 11.7352 12.2895 12.2886C11.7363 12.8421 11.0939 13.2768 10.3623 13.5928C9.63081 13.9087 8.84374 14.0667 8.00112 14.0667ZM8 13.2C9.44444 13.2 10.6722 12.6944 11.6833 11.6833C12.6944 10.6722 13.2 9.44444 13.2 8C13.2 7.36341 13.0904 6.7611 12.8712 6.19307C12.6519 5.62503 12.3496 5.11238 11.9641 4.65512L4.65512 11.9641C5.11238 12.3538 5.62503 12.6573 6.19307 12.8744C6.7611 13.0915 7.36341 13.2 8 13.2ZM4.0359 11.3449L11.3449 4.0359C10.8919 3.64189 10.3807 3.3374 9.81127 3.12243C9.24184 2.90748 8.63809 2.8 8 2.8C6.55556 2.8 5.32778 3.30556 4.31667 4.31667C3.30556 5.32778 2.8 6.55556 2.8 8C2.8 8.63659 2.90855 9.2389 3.12565 9.80693C3.34274 10.375 3.64616 10.8876 4.0359 11.3449Z" fill="currentColor"/>
    </g>
</svg>
