<svg width="16" height="16" viewBox="0 0 16 16" fill="none" xmlns="http://www.w3.org/2000/svg">
    <g clip-path="url(#clip0_34_342)">
        <g clip-path="url(#clip1_34_342)">
            <path d="M6.70517 0.318069C5.88765 0.456632 5.24333 0.678332 4.43966 1.08709C1.69612 2.48658 0.0680019 5.28555 0.241206 8.32008C0.331272 9.90663 0.698464 10.9043 1.50906 11.7079C2.34736 12.5532 3.10946 12.8234 4.59901 12.8234C7.204 12.8234 9.94754 11.6733 11.8597 9.77499C13.0236 8.62492 13.6957 7.39864 13.9243 5.99915L14.0421 5.30634L14.3746 5.75667C14.8804 6.4287 15.2891 7.33628 15.4762 8.17459C15.6286 8.85355 15.6425 8.88126 15.6841 8.62492C15.8573 7.57184 15.5455 5.81209 14.9705 4.61352C14.5825 3.82371 14.2014 3.26946 13.571 2.59743C12.6634 1.64135 11.8666 1.33651 10.4672 1.41272C8.83211 1.50278 7.37027 2.0986 5.38882 3.47731C5.35418 3.50502 5.63131 3.89299 6.01235 4.34332C6.38647 4.80058 6.78831 5.28555 6.89223 5.42412C7.00308 5.56961 7.107 5.68739 7.13471 5.68739C7.1555 5.68739 7.66125 5.36869 8.25015 4.97379C8.83904 4.58581 9.71199 4.0662 10.1831 3.82371C11.1392 3.33181 11.1946 3.33874 11.1253 3.88607C11.0491 4.53038 10.2732 5.48647 9.05381 6.44255C7.79982 7.42635 6.70517 8.01524 5.61052 8.29237C4.9662 8.45864 3.96162 8.40322 3.50436 8.18152C3.04018 7.95982 2.56906 7.47485 2.31965 6.96909C2.13952 6.6019 2.11873 6.47719 2.11873 5.92987C2.11873 5.1262 2.30579 4.56502 2.84619 3.75443C3.70528 2.47965 4.8415 1.62056 6.38647 1.09402C7.68204 0.643692 9.48336 0.581338 10.8413 0.934674C11.2223 1.03167 11.541 1.10095 11.5549 1.08709C11.5964 1.05245 10.6473 0.664476 10.19 0.532842C9.15773 0.228003 7.76518 0.137937 6.70517 0.318069Z" fill="url(#paint0_radial_34_342)"/>
            <path d="M15.2545 10.2392C15.012 10.7242 14.3123 11.5971 13.7095 12.1721C12.3585 13.4677 10.6473 14.306 8.76974 14.597C7.82752 14.7425 6.36568 14.7009 5.44423 14.5C4.60593 14.3199 3.40736 13.8626 2.78382 13.4816C2.49977 13.3084 2.25728 13.1767 2.24343 13.1975C2.188 13.2529 3.18566 14.112 3.71912 14.4584C7.91758 17.2158 13.564 15.3037 15.2753 10.544C15.4762 9.97591 15.4693 9.82349 15.2545 10.2392Z" fill="url(#paint1_radial_34_342)"/>
        </g>
    </g>
    <defs>
        <radialGradient id="paint0_radial_34_342" cx="0" cy="0" r="1" gradientUnits="userSpaceOnUse" gradientTransform="translate(0.228638 10.8078) scale(17.9837 14.6131)">
            <stop stop-color="#BFFF00"/>
            <stop offset="1" stop-color="#00FFFF"/>
        </radialGradient>
        <radialGradient id="paint1_radial_34_342" cx="0" cy="0" r="1" gradientUnits="userSpaceOnUse" gradientTransform="translate(2.24121 14.8146) scale(15.2885 6.64463)">
            <stop stop-color="#BFFF00"/>
            <stop offset="1" stop-color="#00FFFF"/>
        </radialGradient>
        <clipPath id="clip0_34_342">
            <rect width="16" height="16" fill="white"/>
        </clipPath>
        <clipPath id="clip1_34_342">
            <rect width="16" height="16" fill="white"/>
        </clipPath>
    </defs>
</svg>
