<svg width="23" height="23" viewBox="0 0 23 23" fill="none" xmlns="http://www.w3.org/2000/svg">
    <g clip-path="url(#clip0_1_8)">
        <path d="M0 9.62791C0 4.31056 4.31056 0 9.62791 0H21.275C22.2277 0 23 0.772309 23 1.725V13.3721C23 18.6894 18.6894 23 13.3721 23H1.725C0.772308 23 0 22.2277 0 21.275V9.62791Z" fill="#1E1E1E"/>
        <g filter="url(#filter0_f_1_8)">
            <rect x="3.87793" y="3.8779" width="15.2442" height="15.2442" rx="7.62209" fill="url(#paint0_linear_1_8)"/>
        </g>
        <rect x="3.87793" y="3.8779" width="15.2442" height="15.2442" rx="7.62209" fill="url(#paint1_linear_1_8)"/>
    </g>
    <path d="M9.62791 0.23H21.275C22.1007 0.23 22.77 0.899334 22.77 1.725V13.3721C22.77 18.5624 18.5624 22.77 13.3721 22.77H1.725C0.899334 22.77 0.23 22.1007 0.23 21.275V9.62791C0.23 4.43759 4.43759 0.23 9.62791 0.23Z" stroke="url(#paint2_linear_1_8)" stroke-width="0.46"/>
    <defs>
        <filter id="filter0_f_1_8" x="-1.24966" y="-1.24969" width="25.4993" height="25.4994" filterUnits="userSpaceOnUse" color-interpolation-filters="sRGB">
            <feFlood flood-opacity="0" result="BackgroundImageFix"/>
            <feBlend mode="normal" in="SourceGraphic" in2="BackgroundImageFix" result="shape"/>
            <feGaussianBlur stdDeviation="2.5638" result="effect1_foregroundBlur_1_8"/>
        </filter>
        <linearGradient id="paint0_linear_1_8" x1="11.5" y1="3.8779" x2="11.5" y2="19.1221" gradientUnits="userSpaceOnUse">
            <stop stop-color="#3AEEE3"/>
            <stop offset="1" stop-color="#D9D9D9"/>
        </linearGradient>
        <linearGradient id="paint1_linear_1_8" x1="11.5" y1="3.8779" x2="11.5" y2="19.1221" gradientUnits="userSpaceOnUse">
            <stop stop-color="#3AEEE3"/>
            <stop offset="1" stop-color="#D9D9D9"/>
        </linearGradient>
        <linearGradient id="paint2_linear_1_8" x1="11.5" y1="0" x2="11.5" y2="23" gradientUnits="userSpaceOnUse">
            <stop stop-color="#BCBCBC"/>
            <stop offset="1" stop-color="#BCBCBC" stop-opacity="0.17"/>
        </linearGradient>
        <clipPath id="clip0_1_8">
            <path d="M0 9.62791C0 4.31056 4.31056 0 9.62791 0H21.275C22.2277 0 23 0.772309 23 1.725V13.3721C23 18.6894 18.6894 23 13.3721 23H1.725C0.772308 23 0 22.2277 0 21.275V9.62791Z" fill="white"/>
        </clipPath>
    </defs>
</svg>
